<svg class="border shadow-md" viewBox="0 0 759.1466666666668 569.36" style="width: 759.147px; height: 569.36px;" xmlns="http://www.w3.org/2000/svg" preserveAspectRatio="none"><rect class="bg" id="bg" x="0" y="0" width="759.1466666666668" height="569.36" fill="#5989f7"/><path d="M 0 -47.446666666666665 L 0 -47.45&#10;            L 111.00 -23.72&#10;            L 151.82933333333335 -47.45 L 151.82933333333335 -47.45&#10;            L 202.44 -23.72&#10;            L 303.6586666666667 -47.45 L 303.6586666666667 -47.45&#10;            L 373.66 -15.45&#10;            L 455.48800000000006 -47.45 L 455.48800000000006 -47.45&#10;            L 533.49 -23.45&#10;            L 607.3173333333334 -47.45 L 607.3173333333334 -47.45&#10;            L 657.93 -23.72&#10;            L 759.1466666666668 -47.45 L 759.1466666666668 -47.45&#10;            L 845.15 -4.45&#10;            L 910.9760000000001 -47.45  V 569.36 H 0 V -47.45 Z" fill="#529EFA"/><path d="M 0 0 L 0 0.00&#10;            L 81.00 23.72&#10;            L 151.82933333333335 0.00 L 151.82933333333335 0.00&#10;            L 226.83 42.00&#10;            L 303.6586666666667 0.00 L 303.6586666666667 0.00&#10;            L 416.66 23.72&#10;            L 455.48800000000006 0.00 L 455.48800000000006 0.00&#10;            L 542.49 23.72&#10;            L 607.3173333333334 0.00 L 607.3173333333334 0.00&#10;            L 657.93 23.72&#10;            L 759.1466666666668 0.00 L 759.1466666666668 0.00&#10;            L 865.15 23.72&#10;            L 910.9760000000001 0.00  V 569.36 H 0 V 0.00 Z" fill="#4c93f0"/><path d="M 0 47.446666666666665 L 0 47.45&#10;            L 50.61 80.45&#10;            L 151.82933333333335 47.45 L 151.82933333333335 47.45&#10;            L 210.83 92.45&#10;            L 303.6586666666667 47.45 L 303.6586666666667 47.45&#10;            L 354.27 85.45&#10;            L 455.48800000000006 47.45 L 455.48800000000006 47.45&#10;            L 530.49 77.45&#10;            L 607.3173333333334 47.45 L 607.3173333333334 47.45&#10;            L 669.32 74.45&#10;            L 759.1466666666668 47.45 L 759.1466666666668 47.45&#10;            L 850.15 71.17&#10;            L 910.9760000000001 47.45  V 569.36 H 0 V 47.45 Z" fill="#4688e6"/><path d="M 0 94.89333333333333 L 0 94.89&#10;            L 57.00 138.89&#10;            L 151.82933333333335 94.89 L 151.82933333333335 94.89&#10;            L 214.83 118.62&#10;            L 303.6586666666667 94.89 L 303.6586666666667 94.89&#10;            L 395.66 118.62&#10;            L 455.48800000000006 94.89 L 455.48800000000006 94.89&#10;            L 506.10 139.89&#10;            L 607.3173333333334 94.89 L 607.3173333333334 94.89&#10;            L 663.32 137.89&#10;            L 759.1466666666668 94.89 L 759.1466666666668 94.89&#10;            L 809.76 118.62&#10;            L 910.9760000000001 94.89  V 569.36 H 0 V 94.89 Z" fill="#407ddc"/><path d="M 0 142.34 L 0 142.34&#10;            L 68.00 187.34&#10;            L 151.82933333333335 142.34 L 151.82933333333335 142.34&#10;            L 202.44 166.06&#10;            L 303.6586666666667 142.34 L 303.6586666666667 142.34&#10;            L 354.27 178.34&#10;            L 455.48800000000006 142.34 L 455.48800000000006 142.34&#10;            L 506.10 175.34&#10;            L 607.3173333333334 142.34 L 607.3173333333334 142.34&#10;            L 657.93 167.34&#10;            L 759.1466666666668 142.34 L 759.1466666666668 142.34&#10;            L 809.76 166.06&#10;            L 910.9760000000001 142.34  V 569.36 H 0 V 142.34 Z" fill="#3a72d2"/><path d="M 0 189.78666666666666 L 0 189.79&#10;            L 50.61 217.79&#10;            L 151.82933333333335 189.79 L 151.82933333333335 189.79&#10;            L 202.44 224.79&#10;            L 303.6586666666667 189.79 L 303.6586666666667 189.79&#10;            L 370.66 213.51&#10;            L 455.48800000000006 189.79 L 455.48800000000006 189.79&#10;            L 551.49 213.51&#10;            L 607.3173333333334 189.79 L 607.3173333333334 189.79&#10;            L 658.32 235.79&#10;            L 759.1466666666668 189.79 L 759.1466666666668 189.79&#10;            L 809.76 224.79&#10;            L 910.9760000000001 189.79  V 569.36 H 0 V 189.79 Z" fill="#3467c8"/><path d="M 0 237.23333333333332 L 0 237.23&#10;            L 55.00 265.23&#10;            L 151.82933333333335 237.23 L 151.82933333333335 237.23&#10;            L 223.83 260.96&#10;            L 303.6586666666667 237.23 L 303.6586666666667 237.23&#10;            L 396.66 260.96&#10;            L 455.48800000000006 237.23 L 455.48800000000006 237.23&#10;            L 532.49 260.96&#10;            L 607.3173333333334 237.23 L 607.3173333333334 237.23&#10;            L 657.93 269.23&#10;            L 759.1466666666668 237.23 L 759.1466666666668 237.23&#10;            L 809.76 272.23&#10;            L 910.9760000000001 237.23  V 569.36 H 0 V 237.23 Z" fill="#2e5cbe"/><path d="M 0 284.68 L 0 284.68&#10;            L 55.00 321.68&#10;            L 151.82933333333335 284.68 L 151.82933333333335 284.68&#10;            L 260.83 323.68&#10;            L 303.6586666666667 284.68 L 303.6586666666667 284.68&#10;            L 354.27 308.40&#10;            L 455.48800000000006 284.68 L 455.48800000000006 284.68&#10;            L 534.49 308.40&#10;            L 607.3173333333334 284.68 L 607.3173333333334 284.68&#10;            L 671.32 308.40&#10;            L 759.1466666666668 284.68 L 759.1466666666668 284.68&#10;            L 833.15 317.68&#10;            L 910.9760000000001 284.68  V 569.36 H 0 V 284.68 Z" fill="#2851b4"/><path d="M 0 332.12666666666667 L 0 332.13&#10;            L 55.00 355.85&#10;            L 151.82933333333335 332.13 L 151.82933333333335 332.13&#10;            L 212.83 378.13&#10;            L 303.6586666666667 332.13 L 303.6586666666667 332.13&#10;            L 410.66 355.85&#10;            L 455.48800000000006 332.13 L 455.48800000000006 332.13&#10;            L 506.10 355.85&#10;            L 607.3173333333334 332.13 L 607.3173333333334 332.13&#10;            L 657.93 357.13&#10;            L 759.1466666666668 332.13 L 759.1466666666668 332.13&#10;            L 831.15 355.85&#10;            L 910.9760000000001 332.13  V 569.36 H 0 V 332.13 Z" fill="#2246aa"/><path d="M 0 379.5733333333333 L 0 379.57&#10;            L 50.61 403.30&#10;            L 151.82933333333335 379.57 L 151.82933333333335 379.57&#10;            L 202.44 421.57&#10;            L 303.6586666666667 379.57 L 303.6586666666667 379.57&#10;            L 354.27 418.57&#10;            L 455.48800000000006 379.57 L 455.48800000000006 379.57&#10;            L 542.49 403.30&#10;            L 607.3173333333334 379.57 L 607.3173333333334 379.57&#10;            L 709.32 415.57&#10;            L 759.1466666666668 379.57 L 759.1466666666668 379.57&#10;            L 865.15 403.30&#10;            L 910.9760000000001 379.57  V 569.36 H 0 V 379.57 Z" fill="#1c3ba0"/><path d="M 0 427.02 L 0 427.02&#10;            L 59.00 450.74&#10;            L 151.82933333333335 427.02 L 151.82933333333335 427.02&#10;            L 226.83 450.74&#10;            L 303.6586666666667 427.02 L 303.6586666666667 427.02&#10;            L 354.27 469.02&#10;            L 455.48800000000006 427.02 L 455.48800000000006 427.02&#10;            L 506.10 456.02&#10;            L 607.3173333333334 427.02 L 607.3173333333334 427.02&#10;            L 718.32 450.74&#10;            L 759.1466666666668 427.02 L 759.1466666666668 427.02&#10;            L 809.76 450.74&#10;            L 910.9760000000001 427.02  V 569.36 H 0 V 427.02 Z" fill="#163096"/><path d="M 0 474.46666666666664 L 0 474.47&#10;            L 90.00 515.47&#10;            L 151.82933333333335 474.47 L 151.82933333333335 474.47&#10;            L 202.44 515.47&#10;            L 303.6586666666667 474.47 L 303.6586666666667 474.47&#10;            L 402.66 514.47&#10;            L 455.48800000000006 474.47 L 455.48800000000006 474.47&#10;            L 533.49 511.47&#10;            L 607.3173333333334 474.47 L 607.3173333333334 474.47&#10;            L 657.93 512.47&#10;            L 759.1466666666668 474.47 L 759.1466666666668 474.47&#10;            L 809.76 498.47&#10;            L 910.9760000000001 474.47  V 569.36 H 0 V 474.47 Z" fill="#10258c"/><path d="M 0 521.9133333333333 L 0 521.91&#10;            L 50.61 545.64&#10;            L 151.82933333333335 521.91 L 151.82933333333335 521.91&#10;            L 258.83 554.91&#10;            L 303.6586666666667 521.91 L 303.6586666666667 521.91&#10;            L 354.27 545.64&#10;            L 455.48800000000006 521.91 L 455.48800000000006 521.91&#10;            L 506.10 552.91&#10;            L 607.3173333333334 521.91 L 607.3173333333334 521.91&#10;            L 686.32 545.64&#10;            L 759.1466666666668 521.91 L 759.1466666666668 521.91&#10;            L 826.15 545.64&#10;            L 910.9760000000001 521.91  V 569.36 H 0 V 521.91 Z" fill="#0a1a82"/></svg>